# xmcd CD database file
#
# Track frame offsets:
#	150
#	15285
#	30375
#	48427
#	64952
#	78607
#	93892
#	105835
#	121230
#	128700
#	147885
#	170170
#	173335
#	189937
#	198630
#	203847
#	217295
#	233572
#	251055
#
# Disc length: 3533 seconds
#
# Revision: 0
# Processed by: cddbd v1.5.1PL0 Copyright (c) Steve Scherf et al.
# Submitted via: CDex 1.51
#
DISCID=fd0dcb13
DTITLE=Manhattan Transfer - The Manhattan Transfer LIVE
DYEAR=1978
DGENRE=Jazz
TTITLE0=That Cat Is High
TTITLE1=Snootie Little Cutie
TTITLE2=Four Brothers
TTITLE3=On A Little Street In Singapore
TTITLE4=Java Jive
TTITLE5=Walk In Love
TTITLE6=Chanson D'amour
TTITLE7=Speak Up Mambo (Cuentame)
TTITLE8=15 Minutes Intermission
TTITLE9=In The Park
TTITLE10=Je Voulais (Te Dire Que Je T'Attends)
TTITLE11=Sunday
TTITLE12=Candy
TTITLE13=Well, Well, Well
TTITLE14=Freddy Morris Monologue
TTITLE15=Bacon Fat
TTITLE16=Turn Me Loose
TTITLE17=Operator
TTITLE18=Tuxedo Junction
EXTD=YEAR: 1978
EXTT0=
EXTT1=
EXTT2=
EXTT3=
EXTT4=
EXTT5=
EXTT6=
EXTT7=
EXTT8=
EXTT9=
EXTT10=
EXTT11=
EXTT12=
EXTT13=
EXTT14=
EXTT15=
EXTT16=
EXTT17=
EXTT18=
PLAYORDER=
